<svg xmlns="http://www.w3.org/2000/svg" width="392.342" height="100.5" viewBox="0 0 392.342 100.5">
  <g id="Group_4597" data-name="Group 4597" transform="translate(-635.481 -458.5)">
    <g id="Group_1476" data-name="Group 1476" transform="translate(636 459)">
      <g id="Logo">
        <path id="Header" d="M363.581,67.818c-14.039,0-25.234-12.492-23.6-27.234a24.145,24.145,0,0,1,20.278-21.3A23.523,23.523,0,0,1,383.465,30.1c.034.049.065.079.1.128a18.938,18.938,0,0,1,2.567,5.542,24.657,24.657,0,0,1,.876,3.716c.131.733.241,1.475.336,2.217a29.825,29.825,0,0,1,.256,7.4c-.034.574-.052,1.151-.052,1.74,0,5.273,1.072,7.618,3.532,11.493a15.21,15.21,0,0,1-7.458.675c-2.609-.226-5.061-.455-7.558,1.163-.134.079-.265.147-.4.22a23.389,23.389,0,0,1-5.781,2.519,18.95,18.95,0,0,1-5.493.932A6.784,6.784,0,0,1,363.581,67.818ZM346.038,43.454a18.117,18.117,0,1,0,36.221,0,18.117,18.117,0,1,0-36.221,0ZM23.762,67.818C9.727,67.818-1.47,55.326.158,40.584a24.148,24.148,0,0,1,20.278-21.3A23.524,23.524,0,0,1,43.647,30.1c.037.049.064.079.1.128a19.021,19.021,0,0,1,2.564,5.542,24.593,24.593,0,0,1,.876,3.716c.131.733.244,1.475.336,2.217a29.774,29.774,0,0,1,.259,7.4c-.037.574-.052,1.151-.052,1.74,0,5.273,1.071,7.618,3.532,11.493a15.21,15.21,0,0,1-7.457.675c-2.61-.226-5.062-.455-7.558,1.163-.138.079-.268.147-.4.22a23.439,23.439,0,0,1-5.781,2.519,18.958,18.958,0,0,1-5.5.932A6.8,6.8,0,0,1,23.762,67.818ZM6.22,43.454A18.352,18.352,0,0,0,24.333,62.035,18.348,18.348,0,0,0,42.441,43.454,18.351,18.351,0,0,0,24.333,24.871,18.354,18.354,0,0,0,6.22,43.454Zm246.256,6.1V3.85h6.285V20.272h27.3V26h-27.3V49.555c0,8.446,4.692,12.48,11.914,12.48,7.134,0,11.917-3.942,11.917-12.48V48.523h6.1v1.032c0,12.2-7.32,18.3-18.016,18.3C259.887,67.855,252.476,61.757,252.476,49.555Zm-43.254,4.034H215.6c.28,4.974,4.783,8.541,12.57,8.541,8.071,0,12.574-3.753,12.574-8.727,0-5.631-5.91-6.287-12.574-7.133-8.348-1.032-17.826-2.345-17.826-12.577,0-8.727,6.85-14.642,17.732-14.642s17.546,6.009,17.732,13.89h-6.191c-.28-4.6-4.5-8.165-11.632-8.165s-11.353,3.566-11.353,8.354c0,5.725,6,6.382,12.57,7.225,7.226.94,17.922,2.067,17.922,12.577,0,8.825-7.411,14.922-18.953,14.922C216.73,67.855,209.505,61.757,209.221,53.589ZM109.773,43.454c0-14.077,10.318-24.4,24.955-24.4S159.5,29.378,159.5,43.454v2.064H116.245c.846,9.667,8.068,16.516,18.483,16.516,7.317,0,12.946-3,15.949-8.351h6.849c-3.565,8.541-12.008,14.171-22.8,14.171C120.091,67.855,109.773,57.531,109.773,43.454Zm6.661-3.566h36.5c-1.5-9.386-8.819-15.017-18.2-15.017C125.063,24.871,117.841,30.785,116.434,39.888ZM54.886,43.265C54.886,29,65.3,19.051,78.9,19.051c8.822,0,16.044,4.131,19.515,11.17V0a6.288,6.288,0,0,1,6.288,6.29V43.173c0,14.919-10.415,24.681-24.771,24.681C65.206,67.855,54.886,57.531,54.886,43.265Zm6.38.189c0,10.7,7.506,18.581,18.578,18.581,11.166,0,18.574-7.881,18.574-18.581S91.01,24.871,79.844,24.871C68.772,24.871,61.266,32.755,61.266,43.454ZM294.319,66.636V38.856c0-13.329,7.974-19.8,19.515-19.8s19.42,6.476,19.42,19.9v.562H327.06v-.656c0-9.667-5.347-13.985-13.226-13.985-7.977,0-13.23,4.318-13.23,13.985V66.636Zm-96.261,0L172.631,44.581V66.636h-6.285V0h6.285V41.012l24.582-20.739h8.821L179.295,42.795l27.677,23.842Z" transform="translate(0)" fill="#fff" stroke="rgba(0,0,0,0)" stroke-miterlimit="10" stroke-width="1"/>
      </g>
    </g>
    <g id="WELCOME_TO_NEW_PANOP" data-name="WELCOME TO NEW PANOP" transform="translate(636.678 541.784)" style="isolation: isolate">
      <g id="Group_1477" data-name="Group 1477" transform="translate(0 0)" style="isolation: isolate">
        <path id="Path_82" data-name="Path 82" d="M397.575,380.03h-4.527L392.3,382.2H389.9l4.088-11.384h2.655l4.088,11.384h-2.411Zm-2.264-6.579-1.645,4.755h3.29Z" transform="translate(-389.904 -369.428)" fill="#fff"/>
        <path id="Path_83" data-name="Path 83" d="M420.151,378.27a2.03,2.03,0,1,0-4.039,0v4.984h-2.28v-9.023h2.28v1.124a3.369,3.369,0,0,1,2.72-1.254c2.1,0,3.6,1.368,3.6,3.859v5.293h-2.28Z" transform="translate(-397.595 -370.485)" fill="#fff"/>
        <path id="Path_84" data-name="Path 84" d="M433.359,383.393a4.66,4.66,0,0,1,0-9.316,4.236,4.236,0,0,1,4.447,4.462,5.326,5.326,0,0,1-.065.879h-6.6a2.11,2.11,0,0,0,2.166,2.085,1.857,1.857,0,0,0,1.808-1.091h2.46A4.2,4.2,0,0,1,433.359,383.393Zm-2.2-5.505h4.284a2.006,2.006,0,0,0-2.15-1.938A2.1,2.1,0,0,0,431.161,377.888Z" transform="translate(-402.417 -370.477)" fill="#fff"/>
        <path id="Path_85" data-name="Path 85" d="M443.016,374.293h2.313l1.6,6.873,1.726-6.873h2.411l1.694,6.856,1.6-6.856h2.182l-2.638,9.023h-2.459l-1.646-6.3-1.645,6.3h-2.475Z" transform="translate(-406.976 -370.547)" fill="#fff"/>
        <path id="Path_86" data-name="Path 86" d="M473.728,374.077a3.531,3.531,0,0,1,2.98,1.432v-1.286H479v9.088a4.124,4.124,0,0,1-4.462,4.382c-2.541,0-4.316-1.27-4.544-3.339h2.264a2.331,2.331,0,0,0,4.446-1.042v-1.4a3.56,3.56,0,0,1-2.98,1.482c-2.3,0-4.121-1.873-4.121-4.69S471.431,374.077,473.728,374.077Zm.586,2a2.407,2.407,0,0,0-2.378,2.623,2.466,2.466,0,0,0,2.378,2.687,2.669,2.669,0,0,0,0-5.31Z" transform="translate(-415.524 -370.477)" fill="#fff"/>
        <path id="Path_87" data-name="Path 87" d="M490.407,383.393a4.66,4.66,0,0,1,0-9.316,4.235,4.235,0,0,1,4.446,4.462,5.326,5.326,0,0,1-.065.879h-6.6a2.11,2.11,0,0,0,2.166,2.085,1.858,1.858,0,0,0,1.808-1.091h2.459A4.194,4.194,0,0,1,490.407,383.393Zm-2.2-5.505h4.283a2,2,0,0,0-2.15-1.938A2.1,2.1,0,0,0,488.208,377.888Z" transform="translate(-420.754 -370.477)" fill="#fff"/>
        <path id="Path_88" data-name="Path 88" d="M507.87,378.27a2.029,2.029,0,1,0-4.039,0v4.984h-2.28v-9.023h2.28v1.124a3.368,3.368,0,0,1,2.72-1.254c2.1,0,3.6,1.368,3.6,3.859v5.293H507.87Z" transform="translate(-425.792 -370.485)" fill="#fff"/>
        <path id="Path_89" data-name="Path 89" d="M521.079,383.393a4.66,4.66,0,0,1,0-9.316,4.236,4.236,0,0,1,4.446,4.462,5.326,5.326,0,0,1-.065.879h-6.6a2.11,2.11,0,0,0,2.166,2.085,1.857,1.857,0,0,0,1.808-1.091h2.46A4.194,4.194,0,0,1,521.079,383.393Zm-2.2-5.505h4.284a2.005,2.005,0,0,0-2.15-1.938A2.1,2.1,0,0,0,518.88,377.888Z" transform="translate(-430.614 -370.477)" fill="#fff"/>
        <path id="Path_90" data-name="Path 90" d="M534.5,383.254h-2.28v-9.023h2.28v1.4a3.128,3.128,0,0,1,2.769-1.53v2.394h-.6c-1.352,0-2.166.521-2.166,2.264Z" transform="translate(-435.651 -370.485)" fill="#fff"/>
        <path id="Path_91" data-name="Path 91" d="M545.175,374.077a3.569,3.569,0,0,1,2.98,1.432v-1.286h2.3v9.023h-2.3v-1.319a3.558,3.558,0,0,1-3,1.466c-2.28,0-4.1-1.873-4.1-4.69S542.879,374.077,545.175,374.077Zm.586,2a2.407,2.407,0,0,0-2.378,2.623,2.466,2.466,0,0,0,2.378,2.687,2.669,2.669,0,0,0,0-5.31Z" transform="translate(-438.49 -370.477)" fill="#fff"/>
        <path id="Path_92" data-name="Path 92" d="M558.209,375.109h-1.075v-1.873h1.075v-2.231h2.3v2.231h2.019v1.873h-2.019v4.364c0,.6.244.864.961.864h1.058v1.922h-1.433c-1.727,0-2.883-.733-2.883-2.8Z" transform="translate(-443.659 -369.49)" fill="#fff"/>
        <path id="Path_93" data-name="Path 93" d="M567.142,370.107a1.4,1.4,0,1,1,1.4,1.336A1.337,1.337,0,0,1,567.142,370.107Zm.244,2.411h2.28v9.023h-2.28Z" transform="translate(-446.876 -368.772)" fill="#fff"/>
        <path id="Path_94" data-name="Path 94" d="M577.91,383.393a4.658,4.658,0,1,1,4.707-4.658A4.512,4.512,0,0,1,577.91,383.393Zm0-1.987a2.4,2.4,0,0,0,2.362-2.671,2.371,2.371,0,0,0-2.33-2.671c-1.205,0-2.3.863-2.3,2.671C575.646,380.526,576.688,381.406,577.91,381.406Z" transform="translate(-448.866 -370.477)" fill="#fff"/>
        <path id="Path_95" data-name="Path 95" d="M595.8,378.27a2.029,2.029,0,1,0-4.039,0v4.984h-2.281v-9.023h2.281v1.124a3.367,3.367,0,0,1,2.72-1.254c2.1,0,3.6,1.368,3.6,3.859v5.293H595.8Z" transform="translate(-454.058 -370.485)" fill="#fff"/>
        <path id="Path_96" data-name="Path 96" d="M614.8,383.393a4.658,4.658,0,1,1,4.707-4.658A4.511,4.511,0,0,1,614.8,383.393Zm0-1.987a2.4,2.4,0,0,0,2.362-2.671,2.37,2.37,0,0,0-2.329-2.671c-1.206,0-2.3.863-2.3,2.671C612.533,380.526,613.576,381.406,614.8,381.406Z" transform="translate(-460.723 -370.477)" fill="#fff"/>
        <path id="Path_97" data-name="Path 97" d="M626.247,374.444h-1.026v-1.873h1.026v-.456c0-2.215,1.254-3.241,3.8-3.176v1.922c-1.108-.032-1.483.326-1.483,1.335v.375h1.58v1.873h-1.58v7.15h-2.312Z" transform="translate(-465.545 -368.825)" fill="#fff"/>
        <path id="Path_98" data-name="Path 98" d="M643.621,374.077a3.569,3.569,0,0,1,2.98,1.432v-1.286h2.3v9.023h-2.3v-1.319a3.558,3.558,0,0,1-3,1.466c-2.281,0-4.1-1.873-4.1-4.69S641.324,374.077,643.621,374.077Zm.586,2a2.407,2.407,0,0,0-2.378,2.623,2.466,2.466,0,0,0,2.378,2.687,2.669,2.669,0,0,0,0-5.31Z" transform="translate(-470.135 -370.477)" fill="#fff"/>
        <path id="Path_99" data-name="Path 99" d="M659.909,372.711a3.7,3.7,0,0,1,2.948,1.4v-4.284h2.312V381.88h-2.312v-1.335a3.41,3.41,0,0,1-2.964,1.482c-2.3,0-4.121-1.873-4.121-4.69S657.6,372.711,659.909,372.711Zm.569,2a2.407,2.407,0,0,0-2.378,2.623,2.466,2.466,0,0,0,2.378,2.687,2.669,2.669,0,0,0,0-5.31Z" transform="translate(-475.365 -369.111)" fill="#fff"/>
        <path id="Path_100" data-name="Path 100" d="M691.242,378.27a2.018,2.018,0,1,0-4.022,0v4.984h-2.281V378.27a2.025,2.025,0,1,0-4.039,0v4.984h-2.28v-9.023h2.28v1.09a3.287,3.287,0,0,1,2.655-1.221,3.451,3.451,0,0,1,3.175,1.726,3.574,3.574,0,0,1,3.095-1.726,3.509,3.509,0,0,1,3.7,3.859v5.293h-2.281Z" transform="translate(-482.71 -370.485)" fill="#fff"/>
        <path id="Path_101" data-name="Path 101" d="M707.028,374.077a3.569,3.569,0,0,1,2.98,1.432v-1.286h2.3v9.023h-2.3v-1.319a3.558,3.558,0,0,1-3,1.466c-2.28,0-4.1-1.873-4.1-4.69S704.732,374.077,707.028,374.077Zm.586,2a2.407,2.407,0,0,0-2.378,2.623,2.466,2.466,0,0,0,2.378,2.687,2.669,2.669,0,0,0,0-5.31Z" transform="translate(-490.517 -370.477)" fill="#fff"/>
        <path id="Path_102" data-name="Path 102" d="M726.362,378.27a2.029,2.029,0,1,0-4.038,0v4.984h-2.281v-9.023h2.281v1.124a3.368,3.368,0,0,1,2.72-1.254c2.1,0,3.6,1.368,3.6,3.859v5.293h-2.281Z" transform="translate(-496.025 -370.485)" fill="#fff"/>
        <path id="Path_103" data-name="Path 103" d="M739.163,374.077a3.57,3.57,0,0,1,2.981,1.432v-1.286h2.3v9.023h-2.3v-1.319a3.559,3.559,0,0,1-3,1.466c-2.281,0-4.1-1.873-4.1-4.69S736.867,374.077,739.163,374.077Zm.586,2a2.406,2.406,0,0,0-2.377,2.623,2.466,2.466,0,0,0,2.377,2.687,2.669,2.669,0,0,0,0-5.31Z" transform="translate(-500.846 -370.477)" fill="#fff"/>
        <path id="Path_104" data-name="Path 104" d="M755.436,374.077a3.529,3.529,0,0,1,2.979,1.432v-1.286h2.3v9.088a4.124,4.124,0,0,1-4.462,4.382c-2.541,0-4.317-1.27-4.544-3.339h2.264a2.33,2.33,0,0,0,4.445-1.042v-1.4a3.558,3.558,0,0,1-2.979,1.482c-2.3,0-4.122-1.873-4.122-4.69S753.139,374.077,755.436,374.077Zm.586,2a2.407,2.407,0,0,0-2.378,2.623,2.466,2.466,0,0,0,2.378,2.687,2.669,2.669,0,0,0,0-5.31Z" transform="translate(-506.076 -370.477)" fill="#fff"/>
        <path id="Path_105" data-name="Path 105" d="M772.115,383.393a4.66,4.66,0,0,1,0-9.316,4.236,4.236,0,0,1,4.446,4.462,5.392,5.392,0,0,1-.065.879h-6.6a2.111,2.111,0,0,0,2.166,2.085,1.858,1.858,0,0,0,1.808-1.091h2.46A4.2,4.2,0,0,1,772.115,383.393Zm-2.2-5.505H774.2a2,2,0,0,0-2.15-1.938A2.1,2.1,0,0,0,769.917,377.888Z" transform="translate(-511.307 -370.477)" fill="#fff"/>
        <path id="Path_106" data-name="Path 106" d="M795.881,378.27a2.018,2.018,0,1,0-4.022,0v4.984h-2.281V378.27a2.025,2.025,0,1,0-4.039,0v4.984h-2.28v-9.023h2.28v1.09a3.286,3.286,0,0,1,2.654-1.221,3.452,3.452,0,0,1,3.176,1.726,3.571,3.571,0,0,1,3.093-1.726,3.509,3.509,0,0,1,3.7,3.859v5.293h-2.281Z" transform="translate(-516.345 -370.485)" fill="#fff"/>
        <path id="Path_107" data-name="Path 107" d="M812.074,383.393a4.66,4.66,0,0,1,0-9.316,4.236,4.236,0,0,1,4.446,4.462,5.413,5.413,0,0,1-.064.879h-6.6a2.111,2.111,0,0,0,2.166,2.085,1.858,1.858,0,0,0,1.808-1.091h2.46A4.2,4.2,0,0,1,812.074,383.393Zm-2.2-5.505h4.283a2.005,2.005,0,0,0-2.15-1.938A2.1,2.1,0,0,0,809.875,377.888Z" transform="translate(-524.152 -370.477)" fill="#fff"/>
        <path id="Path_108" data-name="Path 108" d="M829.538,378.27a2.03,2.03,0,1,0-4.039,0v4.984h-2.279v-9.023H825.5v1.124a3.369,3.369,0,0,1,2.72-1.254c2.1,0,3.6,1.368,3.6,3.859v5.293h-2.28Z" transform="translate(-529.19 -370.485)" fill="#fff"/>
        <path id="Path_109" data-name="Path 109" d="M839.1,375.109h-1.075v-1.873H839.1v-2.231h2.3v2.231h2.02v1.873H841.4v4.364c0,.6.244.864.961.864h1.059v1.922h-1.434c-1.726,0-2.883-.733-2.883-2.8Z" transform="translate(-533.949 -369.49)" fill="#fff"/>
        <path id="Path_110" data-name="Path 110" d="M859.365,374.077c2.313,0,4.122,1.808,4.122,4.626s-1.808,4.69-4.122,4.69a3.682,3.682,0,0,1-2.979-1.434v5.587H854.1V374.224h2.281v1.3A3.6,3.6,0,0,1,859.365,374.077Zm-.6,2a2.671,2.671,0,0,0,0,5.31,2.468,2.468,0,0,0,2.394-2.687A2.409,2.409,0,0,0,858.763,376.08Z" transform="translate(-539.118 -370.477)" fill="#fff"/>
        <path id="Path_111" data-name="Path 111" d="M870.377,369.828h2.281V381.88h-2.281Z" transform="translate(-544.349 -369.111)" fill="#fff"/>
        <path id="Path_112" data-name="Path 112" d="M880.306,374.077a3.569,3.569,0,0,1,2.98,1.432v-1.286h2.3v9.023h-2.3v-1.319a3.559,3.559,0,0,1-3,1.466c-2.281,0-4.1-1.873-4.1-4.69S878.009,374.077,880.306,374.077Zm.585,2a2.407,2.407,0,0,0-2.378,2.623,2.466,2.466,0,0,0,2.378,2.687,2.669,2.669,0,0,0,0-5.31Z" transform="translate(-546.216 -370.477)" fill="#fff"/>
        <path id="Path_113" data-name="Path 113" d="M893.341,375.109h-1.075v-1.873h1.075v-2.231h2.3v2.231h2.02v1.873h-2.02v4.364c0,.6.245.864.961.864h1.059v1.922h-1.433c-1.727,0-2.882-.733-2.882-2.8Z" transform="translate(-551.385 -369.49)" fill="#fff"/>
        <path id="Path_114" data-name="Path 114" d="M902.506,374.444H901.48v-1.873h1.026v-.456c0-2.215,1.255-3.241,3.8-3.176v1.922c-1.108-.032-1.483.326-1.483,1.335v.375h1.58v1.873h-1.58v7.15h-2.313Z" transform="translate(-554.347 -368.825)" fill="#fff"/>
        <path id="Path_115" data-name="Path 115" d="M914.648,383.393a4.658,4.658,0,1,1,4.708-4.658A4.512,4.512,0,0,1,914.648,383.393Zm0-1.987a2.4,2.4,0,0,0,2.362-2.671,2.37,2.37,0,0,0-2.329-2.671c-1.205,0-2.3.863-2.3,2.671C912.384,380.526,913.427,381.406,914.648,381.406Z" transform="translate(-557.108 -370.477)" fill="#fff"/>
        <path id="Path_116" data-name="Path 116" d="M928.5,383.254h-2.279v-9.023H928.5v1.4a3.128,3.128,0,0,1,2.769-1.53v2.394h-.6c-1.352,0-2.166.521-2.166,2.264Z" transform="translate(-562.3 -370.485)" fill="#fff"/>
        <path id="Path_117" data-name="Path 117" d="M948.542,378.27a2.018,2.018,0,1,0-4.022,0v4.984h-2.281V378.27a2.025,2.025,0,1,0-4.039,0v4.984h-2.28v-9.023h2.28v1.09a3.286,3.286,0,0,1,2.655-1.221,3.452,3.452,0,0,1,3.176,1.726,3.571,3.571,0,0,1,3.095-1.726,3.509,3.509,0,0,1,3.7,3.859v5.293h-2.281Z" transform="translate(-565.417 -370.485)" fill="#fff"/>
        <path id="Path_118" data-name="Path 118" d="M961.889,386.492a1.337,1.337,0,1,1,1.384-1.335A1.342,1.342,0,0,1,961.889,386.492Z" transform="translate(-573.309 -373.609)" fill="#fff"/>
      </g>
    </g>
  </g>
</svg>
